HIERARCHY
ROOT Joint1
{
	OFFSET 0.000000 0.000000 0.000000
	CHANNELS 6 Xposition Yposition Zposition Xrotation Yrotation Zrotation
	JOINT Joint2
	{
		OFFSET -0.000000 0.000000 1.456275
		CHANNELS 6 Xposition Yposition Zposition Xrotation Yrotation Zrotation
		JOINT Joint3
		{
			OFFSET -0.000000 0.000002 1.471446
			CHANNELS 6 Xposition Yposition Zposition Xrotation Yrotation Zrotation
			JOINT Joint4
			{
				OFFSET 0.625745 0.000000 0.917755
				CHANNELS 6 Xposition Yposition Zposition Xrotation Yrotation Zrotation
				JOINT Joint5
				{
					OFFSET -0.629534 0.000001 0.940221
					CHANNELS 6 Xposition Yposition Zposition Xrotation Yrotation Zrotation
					JOINT Joint6
					{
						OFFSET -0.000001 0.113772 1.960660
						CHANNELS 6 Xposition Yposition Zposition Xrotation Yrotation Zrotation
						JOINT Joint7
						{
							OFFSET -0.669733 -0.113771 0.388340
							CHANNELS 6 Xposition Yposition Zposition Xrotation Yrotation Zrotation
							End Site
							{
								OFFSET 0.005509 0.005509 0.438980
							}
						}
					}
				}
			}
		}
	}
}
MOTION
Frames: 14
Frame Time: 0.041667
0.000000 0.000000 0.000000 -0.000000 1.019410 13.263516 -0.000000 -0.000000 1.456275 0.000000 -6.938728 0.000000 -0.000000 0.000002 1.471446 -0.000001 -1.133462 -24.052159 0.625744 0.000000 0.917755 0.000003 148.638276 -0.000001 -0.629534 0.000001 0.940221 0.000001 1.709736 -57.694663 -0.000001 0.113771 1.960660 -88.303882 147.131892 0.000001 -0.669733 -0.113771 0.388340 -1.454960 3.237911 182.400475 
0.000000 0.000000 0.000000 -0.000000 1.019410 13.715218 -0.000000 -0.000000 1.456275 -0.000000 -5.643024 0.000001 -0.000000 0.000002 1.471446 -0.000000 -1.133462 -24.870211 0.625745 0.000000 0.917755 0.000003 149.101841 -0.000001 -0.629534 0.000001 0.940221 0.000000 1.709735 -59.659059 -0.000001 0.113772 1.960660 -88.303875 149.078441 0.000002 -0.669733 -0.113771 0.388340 -1.474076 3.216559 184.015200 
0.000000 0.000000 0.000000 -0.000000 1.019410 14.045730 -0.000000 -0.000000 1.456275 0.000000 -4.694951 0.000000 -0.000000 0.000002 1.471446 -0.000001 -1.133462 -25.468778 0.625744 0.000000 0.917755 0.000003 149.441015 -0.000001 -0.629534 0.000001 0.940221 0.000000 1.709734 -61.096411 -0.000001 0.113772 1.960660 -88.303882 150.502754 0.000001 -0.669733 -0.113771 0.388340 -1.487678 3.200604 185.196700 
0.000000 0.000000 0.000000 -0.000000 1.019410 14.335157 -0.000000 0.000000 1.456275 -0.000000 -3.864724 0.000000 -0.000000 0.000002 1.471445 -0.000000 -1.133463 -25.992942 0.625744 0.000000 0.917755 0.000004 149.738046 -0.000000 -0.629534 0.000001 0.940220 0.000001 1.709737 -62.355106 -0.000001 0.113772 1.960660 -88.303882 151.750001 0.000003 -0.669733 -0.113771 0.388341 -1.499315 3.186400 186.231296 
0.000000 0.000000 0.000000 -0.000000 1.019410 14.694872 -0.000000 -0.000000 1.456275 -0.000000 -2.832888 0.000001 -0.000000 0.000002 1.471446 -0.000001 -1.133462 -26.644399 0.625744 0.000000 0.917755 0.000003 150.107204 -0.000000 -0.629534 0.000001 0.940221 0.000001 1.709740 -63.919458 -0.000001 0.113772 1.960661 -88.303875 153.300154 0.000005 -0.669733 -0.113771 0.388340 -1.513417 3.168459 187.517106 
0.000000 0.000000 0.000000 -0.000000 1.019410 15.186726 -0.000000 -0.000000 1.456275 -0.000000 -1.422010 0.000002 -0.000000 0.000002 1.471445 -0.000001 -1.133462 -27.535167 0.625745 0.000000 0.917755 0.000003 150.611955 -0.000002 -0.629533 0.000001 0.940221 -0.000000 1.709734 -66.058461 -0.000001 0.113772 1.960660 -88.303882 155.419739 0.000002 -0.669733 -0.113771 0.388340 -1.532039 3.143426 189.275224 
0.000000 0.000000 0.000000 -0.000000 1.019410 15.674524 0.000000 0.000000 1.456275 -0.000000 -0.022752 0.000001 -0.000000 0.000002 1.471445 -0.000001 -1.133462 -28.418590 0.625744 0.000000 0.917755 0.000003 151.112581 -0.000000 -0.629534 0.000001 0.940221 0.000000 1.709740 -68.179857 -0.000001 0.113772 1.960660 -88.303882 157.521880 0.000001 -0.669733 -0.113771 0.388340 -1.549737 3.118049 191.018808 
0.000000 0.000000 0.000000 -0.000000 1.019410 16.024334 -0.000000 0.000000 1.456275 -0.000000 0.980677 0.000002 -0.000000 0.000002 1.471446 -0.000001 -1.133462 -29.052104 0.625744 0.000000 0.917755 0.000003 151.471562 -0.000001 -0.629534 0.000001 0.940221 -0.000000 1.709734 -69.701138 -0.000001 0.113772 1.960660 -88.303882 159.029357 0.000002 -0.669733 -0.113771 0.388340 -1.561947 3.099527 192.269115 
0.000000 0.000000 0.000000 -0.000000 1.019410 16.309262 -0.000000 -0.000000 1.456275 -0.000000 1.797992 -0.000001 -0.000000 0.000002 1.471446 -0.000001 -1.133463 -29.568121 0.625744 0.000000 0.917755 0.000003 151.763976 -0.000001 -0.629534 0.000001 0.940221 0.000001 1.709739 -70.940257 -0.000001 0.113772 1.960660 -88.303882 160.257207 0.000001 -0.669733 -0.113771 0.388340 -1.571595 3.084239 193.287510 
0.000000 0.000000 0.000000 -0.000000 1.019410 16.654180 -0.000000 0.000000 1.456275 -0.000000 2.787384 0.000000 -0.000000 0.000002 1.471445 -0.000001 -1.133463 -30.192780 0.625745 0.000000 0.917755 0.000003 152.117943 -0.000001 -0.629534 0.000001 0.940221 0.000001 1.709737 -72.440256 -0.000001 0.113772 1.960660 -88.303882 161.743592 0.000000 -0.669733 -0.113771 0.388339 -1.582906 3.065513 194.520291 
0.000000 0.000000 0.000000 -0.000000 1.019410 17.135249 -0.000000 0.000000 1.456275 0.000000 4.167342 -0.000001 -0.000000 0.000002 1.471445 -0.000001 -1.133463 -31.064021 0.625745 0.000000 0.917755 0.000003 152.611657 -0.000001 -0.629534 0.000001 0.940221 0.000000 1.709738 -74.532383 -0.000001 0.113772 1.960661 -88.303882 163.816719 -0.000000 -0.669733 -0.113771 0.388340 -1.598001 3.038999 196.239695 
0.000000 0.000000 0.000000 -0.000000 1.019410 17.633831 -0.000000 -0.000000 1.456275 -0.000000 5.597521 0.000000 -0.000000 0.000002 1.471446 -0.000001 -1.133463 -31.966966 0.625745 0.000000 0.917755 0.000003 153.123306 -0.000000 -0.629534 0.000001 0.940221 0.000001 1.709738 -76.700654 -0.000001 0.113772 1.960661 -88.303882 165.965305 0.000001 -0.669733 -0.113771 0.388340 -1.612798 3.011060 198.021596 
0.000000 0.000000 0.000000 -0.000000 1.019410 18.021546 -0.000000 0.000000 1.456275 0.000000 6.709676 -0.000001 -0.000000 0.000002 1.471445 -0.000001 -1.133463 -32.669129 0.625745 0.000000 0.917755 0.000004 153.521206 -0.000000 -0.629534 0.000001 0.940221 -0.000000 1.709735 -78.386775 -0.000001 0.113772 1.960660 -88.303882 167.636120 0.000001 -0.669733 -0.113771 0.388340 -1.623696 2.989022 199.407223 
0.000000 0.000000 0.000000 -0.000000 1.019410 18.325923 -0.000000 0.000000 1.456275 -0.000000 7.582791 0.000000 -0.000000 0.000002 1.471446 -0.000001 -1.133462 -33.220377 0.625745 0.000000 0.917755 0.000003 153.833578 -0.000000 -0.629534 0.000001 0.940220 0.000000 1.709737 -79.710493 -0.000001 0.113772 1.960661 -88.303882 168.947816 0.000001 -0.669733 -0.113771 0.388340 -1.631876 2.971537 200.495012 
